<svg xmlns="http://www.w3.org/2000/svg" viewBox="0 0 64 64" fill="none" aria-hidden="true">
  <path d="M14 24h36a4 4 0 0 1 4 4v20a4 4 0 0 1-4 4H14a4 4 0 0 1-4-4V28a4 4 0 0 1 4-4Z" stroke="#495235" stroke-width="2.2" stroke-linejoin="round"/>
  <path d="M10 33h44" stroke="#495235" stroke-width="2.2"/>
  <path d="M22 24v-5a10 10 0 0 1 20 0v5" stroke="#495235" stroke-width="2.2" stroke-linecap="round"/>
  <path d="M22 43h10" stroke="#495235" stroke-width="2.2" stroke-linecap="round"/>
  <path d="M43 43c2.8-2.4 4.2-4.2 4.2-6.2a3.2 3.2 0 0 0-5.8-1.8 3.2 3.2 0 0 0-5.8 1.8c0 2 1.4 3.8 4.2 6.2l1.6 1.3 1.6-1.3Z" stroke="#495235" stroke-width="2.2" stroke-linejoin="round"/>
</svg>
