<svg xmlns="http://www.w3.org/2000/svg" viewBox="0 0 48 48" fill="none" aria-hidden="true">
  <path d="M10 25.8V17c0-2.4 1.6-4 3.6-4s3.4 1.6 3.4 4v9" stroke="#495235" stroke-width="1.8" stroke-linecap="round" stroke-linejoin="round"/>
  <path d="M17 25V12.5c0-2.4 1.6-4 3.6-4s3.4 1.6 3.4 4V25" stroke="#495235" stroke-width="1.8" stroke-linecap="round" stroke-linejoin="round"/>
  <path d="M24 25V14.2c0-2.4 1.6-4 3.6-4s3.4 1.6 3.4 4V27" stroke="#495235" stroke-width="1.8" stroke-linecap="round" stroke-linejoin="round"/>
  <path d="M31 27v-5.4c0-2.3 1.5-3.8 3.4-3.8 2 0 3.6 1.6 3.6 4V30c0 8.2-5.6 13-13.2 13H23c-5.1 0-9.1-2.1-11.5-6.1L6.7 29c-1.1-1.8-.5-4 1.3-5 1.7-.9 3.7-.4 4.8 1.1l4.7 6.4" stroke="#495235" stroke-width="1.8" stroke-linecap="round" stroke-linejoin="round"/>
</svg>
