<svg xmlns="http://www.w3.org/2000/svg" viewBox="0 0 48 48" fill="none" aria-hidden="true">
  <path d="M24 41s-15-9.1-15-22.1C9 12.1 13.5 7 19.5 7c3.2 0 5.3 1.5 6.5 3.9C27.2 8.5 29.3 7 32.5 7 38.5 7 43 12.1 43 18.9 43 32.9 26 41 26 41h-2Z" stroke="#495235" stroke-width="1.8" stroke-linecap="round" stroke-linejoin="round"/>
  <path d="M16 18.5c1.8-1.8 4-2.6 6.6-2.2" stroke="#495235" stroke-width="1.8" stroke-linecap="round" stroke-linejoin="round"/>
  <path d="M32 18.5c-1.8-1.8-4-2.6-6.6-2.2" stroke="#495235" stroke-width="1.8" stroke-linecap="round" stroke-linejoin="round"/>
  <path d="M19.5 25.5c3 2.7 6 2.7 9 0" stroke="#495235" stroke-width="1.8" stroke-linecap="round" stroke-linejoin="round"/>
</svg>
